<svg xmlns="http://www.w3.org/2000/svg" version="1.1" xmlns:xlink="http://www.w3.org/1999/xlink" xmlns:svgjs="http://svgjs.com/svgjs" width="512" height="512"><svg xmlns="http://www.w3.org/2000/svg" width="512" height="512">
<path style="fill:#0f0c11; stroke:none;" d="M0 0L0 512L512 512L512 0L0 0z"></path>
<path style="fill:#765988; stroke:none;" d="M370 2L371 3L370 2M366 3L367 4L366 3M374 3L375 4L374 3z"></path>
<path style="fill:#f6f6f6; stroke:none;" d="M129 6L130 7L129 6z"></path>
<path style="fill:#765988; stroke:none;" d="M378 6L379 7L378 6M127 7L127 9L129 9L129 7L127 7M132 7L132 8L132 9L135 9L135 8L132 7M363 7L364 8L363 7M129 9L130 10L129 9M124 10L125 11L124 10M141 11L142 12L141 11M130 12L131 13L130 12M358 12L359 13L358 12z"></path>
<path style="fill:#90678d; stroke:none;" d="M352 19L353 20L352 19z"></path>
<path style="fill:#f6f6f6; stroke:none;" d="M352 20L353 21L352 20z"></path>
<path style="fill:#765988; stroke:none;" d="M152 23L153 24L152 23M344 32L345 33L344 32M105 35L106 36L105 35M169 37L169 46L168 46L166 39L165 39L168 50L175 56L172 52L173 49C169.952 49 170.801 47.1576 172 45L171 37L169 37z"></path>
<path style="fill:#90678d; stroke:none;" d="M171.333 37.6667L171.667 38.3333L171.333 37.6667z"></path>
<path style="fill:#765988; stroke:none;" d="M163.333 39.6667L163.667 40.3333L163.333 39.6667M164 42L165 43L164 42M147 45L150 48L147 45M162 46L163 47L162 46z"></path>
<path style="fill:#90678d; stroke:none;" d="M170 46L171 50L172 50L170 46z"></path>
<path style="fill:#765988; stroke:none;" d="M336.333 48.6667L336.667 49.3333L336.333 48.6667M151 49L154 56L155 56L151 49z"></path>
<path style="fill:#f6f6f6; stroke:none;" d="M176 49L175 52L176 52L176 49z"></path>
<path style="fill:#90678d; stroke:none;" d="M172.333 50.6667L172.667 51.3333L172.333 50.6667z"></path>
<path style="fill:#0f0c11; stroke:none;" d="M176 50L177 51L176 50z"></path>
<path style="fill:#90678d; stroke:none;" d="M177 50L178 51L177 50z"></path>
<path style="fill:#765988; stroke:none;" d="M158 51L159 52L158 51M160 51L161 52L160 51M169.333 51.6667L169.667 52.3333L169.333 51.6667z"></path>
<path style="fill:#90678d; stroke:none;" d="M176 51L177 52L176 51z"></path>
<path style="fill:#765988; stroke:none;" d="M179 51L180 52L179 51M90 52L91 53L90 52M175 52L176 55L177 55L177 52L175 52M334 52L335 53L334 52M159 53L160 54L159 53M161 53L162 54L161 53M165 53L167 58L168 58L165 53M180 53L181 54L180 53M170.333 54.6667L170.667 55.3333L170.333 54.6667M177 55L178 56L177 55M181 55L182 56L181 55M156 56L158 60L156 56M172 56L173 57L172 56M346 56L347 57L346 56M175 57L176 58L175 57M336 58L337 59L336 58M345 59L343 64L344 64L345 59M176.333 61.6667L176.667 62.3333L176.333 61.6667z"></path>
<path style="fill:#f6f6f6; stroke:none;" d="M325 63L326 64L325 63z"></path>
<path style="fill:#765988; stroke:none;" d="M172 64L173 65L172 64M337 64L337 67L338 67L337 64M345 64L344 68L345 68L345 64M113.667 65.3333L114.333 65.6667L113.667 65.3333M167 65L169 71L170 71L167 65M179 65L179 69L180 69L179 65M341 65L340 72L341 72L343 65L341 65M406.667 66.3333L407.333 66.6667L406.667 66.3333M106 67L107 68L106 67M111 67L112 68L111 67M325 67L328 72L325 67z"></path>
<path style="fill:#90678d; stroke:none;" d="M326 67L327 68L326 67z"></path>
<path style="fill:#765988; stroke:none;" d="M161 68L162 69L161 68M182 68L183 73L184 73L182 68M336 68L337 69L336 68M409 68L410 69L409 68M343 69L341 75L342 75L343 69M402 69L403 70L402 69M162 70L164 72L162 70M345 70L346 71L345 70M405.667 70.3333L406.333 70.6667L405.667 70.3333M413.667 70.3333L414.333 70.6667L413.667 70.3333M418.667 71.3333L419.333 71.6667L418.667 71.3333z"></path>
<path style="fill:#f6f6f6; stroke:none;" d="M80 72L81 73L80 72z"></path>
<path style="fill:#765988; stroke:none;" d="M170 72L171 73L170 72M172 72L173 73L172 72M181 72L182 78L183 78L181 72z"></path>
<path style="fill:#3db08d; stroke:none;" d="M324 72L325 73L324 72z"></path>
<path style="fill:#765988; stroke:none;" d="M164 73L165 74L164 73M339 73L340 74L339 73M344 73L343 76L344 76L344 73M166 74L167 77L168 77L166 74M173 74L173 77L174 77L173 74M177 75L178 76L177 75M185 75L186 79L187 79L185 75M324.333 75.6667L324.667 76.3333L324.333 75.6667M337 76L336 82L337 82L337 76M340.333 76.6667L340.667 77.3333L340.333 76.6667M178 77L179 78L178 77z"></path>
<path style="fill:#90678d; stroke:none;" d="M320 77L321 78L320 77z"></path>
<path style="fill:#765988; stroke:none;" d="M322 78L324 80L322 78M179 79L180 80L179 79M410 80L410 81L415 80L410 80M187 80L188 81L187 80M105 82L105 83L109 83L109 85L104 84L106 87L99 88L99 89L104 88L101 90L101 91L105 95L97 97L97 98L100 98L101 104L100 104L96 102L96 103L99 104L96 105L96 106L105 107L105 108L93 112L94 116L102 117L102 118L95 120L95 121L102 120L102 121L94 124L97 127L91 125L94 129L92 129L95 133L91 134L91 135L95 134L91 136L93 140L87 141L89 145L86 145L86 146L91 149L91 150L87 150L87 151L91 151L91 152L87 158L90 157L86 162L91 162L86 166L89 167L83 173L84 177L87 176L82 178L82 179L83 182L87 182L87 183L82 187L88 187L88 188L83 192L88 192L88 191L85 191L85 190L96 190L96 193L90 192L92 194L92 195L87 195L87 196L92 196L93 198L93 199L86 198L86 199L88 199L88 200L82 200L82 201L90 203L95 206L95 207L87 207L90 209L90 210L82 209L82 210L88 211L88 212L84 212L84 213L91 214L91 215L88 215L88 216L90 216L90 217L86 216L86 219L89 218L87 224L95 224L92 229L95 230L93 233L98 234L95 238C96.9752 239.72 96.7656 240.068 95 242L98 243C101.047 237.588 106.122 231.228 112 229L112 230L109 231L103 240L108 237L101 243L101 242L103 242L103 241L99 244L104 245L100 249L100 250L103 247L107 248L106 245L118 240L113 238L113 237C118.617 236.82 122.43 234.257 126 230L120 232L135 216L119 230L120 233L117 233L112 236L123 224L129 213L111 227L135 201L123 208L136 198L136 197C133.05 197.983 132.378 198.487 133 196L126 199L126 198L132 192L126 195L130 191L130 190L123 193L128 186L119 192L132 179L132 178L128 179L127 177L133 173L133 172L125 174L127 171L121 173L129 164L126 165L122 164L122 163L128 159L121 162L121 160L115 163L117 160L114 161L117 158L117 157L110 158L116 153L120 148L120 147L115 148L115 147L122 144L122 143L113 146L113 145L116 144L116 141L109 143L109 142L116 138L116 137L110 138L118 133L118 132L110 134L113 132L112 130L120 128L120 127L113 126L113 125C115.769 124.484 117.834 122.823 114 122L114 121L122 120L122 119L108 119L108 118L119 115L119 114L105 116L105 115L118 111L118 110L113 110L114 108L109 108L109 107L115 106L115 105L111 105L111 104L125 101L125 100L116 99L118 97L118 96L115 96L115 95L118 95L118 94L113 94L113 93L117 91L106 92L106 91L111 90L111 89L107 89L107 88L118 88L118 87L110 86L117 82L105 82M405 83L405 84L418 85L418 84L405 83M189 84L190 85L189 84z"></path>
<path style="fill:#0f0c11; stroke:none;" d="M109 86L110 87L109 86z"></path>
<path style="fill:#765988; stroke:none;" d="M319 86L320 87L319 86M405 87L405 88L414 91L414 89L419 89L419 88L415 89L405 87z"></path>
<path style="fill:#3db08d; stroke:none;" d="M432 88L433 89L432 88z"></path>
<path style="fill:#765988; stroke:none;" d="M318.333 89.6667L318.667 90.3333L318.333 89.6667M192 91L193 92L192 91M317 92L318 93L317 92M314 93L313 96L314 96L314 93z"></path>
<path style="fill:#90678d; stroke:none;" d="M317 93L318 94L317 93z"></path>
<path style="fill:#765988; stroke:none;" d="M407 93L407 94L410 94L407 93M413.667 93.3333L414.333 93.6667L413.667 93.3333z"></path>
<path style="fill:#0f0c11; stroke:none;" d="M113 95L114 96L113 95z"></path>
<path style="fill:#765988; stroke:none;" d="M317.333 95.6667L317.667 96.3333L317.333 95.6667M412.667 95.3333L413.333 95.6667L412.667 95.3333z"></path>
<path style="fill:#0f0c11; stroke:none;" d="M103 96L105 98L103 96z"></path>
<path style="fill:#765988; stroke:none;" d="M407 96L407 97L413 99L413 98L407 96z"></path>
<path style="fill:#0f0c11; stroke:none;" d="M100 97L101 98L100 97z"></path>
<path style="fill:#765988; stroke:none;" d="M434 97L435 98L434 97z"></path>
<path style="fill:#0f0c11; stroke:none;" d="M100.667 99.3333L101.333 99.6667L100.667 99.3333z"></path>
<path style="fill:#765988; stroke:none;" d="M316 99L317 100L316 99M433 100L433 101L437 100L433 100z"></path>
<path style="fill:#0f0c11; stroke:none;" d="M116.667 100.333L117.333 100.667L116.667 100.333z"></path>
<path style="fill:#765988; stroke:none;" d="M410 100L410 101L414 101L410 100M411 102L411 103L417 103L411 102z"></path>
<path style="fill:#f6f6f6; stroke:none;" d="M312 104L313 105L312 104z"></path>
<path style="fill:#765988; stroke:none;" d="M432 104L433 105L432 104M117 105L118 106L117 105z"></path>
<path style="fill:#90678d; stroke:none;" d="M312.333 105.667L312.667 106.333L312.333 105.667z"></path>
<path style="fill:#765988; stroke:none;" d="M408 107L408 108L417 107C413.837 104.643 411.437 105.356 408 107M418 105L419 106L418 105M437 105L438 106L437 105z"></path>
<path style="fill:#0f0c11; stroke:none;" d="M411.667 106.333L412.333 106.667L411.667 106.333z"></path>
<path style="fill:#765988; stroke:none;" d="M312 107L313 108L312 107z"></path>
<path style="fill:#90678d; stroke:none;" d="M312 108L313 109L312 108z"></path>
<path style="fill:#765988; stroke:none;" d="M307.333 109.667L307.667 110.333L307.333 109.667M311 109L313 111L313 109L311 109M410.667 110.333L411.333 110.667L410.667 110.333M309.333 111.667L309.667 112.333L309.333 111.667M413 111L413 112L419 112L413 111z"></path>
<path style="fill:#f6f6f6; stroke:none;" d="M306 112L307 113L306 112z"></path>
<path style="fill:#765988; stroke:none;" d="M312 112L313 113L312 112M406 113L406 114L409 114L409 115L405 116L405 117L411 118L411 119L406 120L406 121L410 121L410 122L405 122C408.064 127.024 414.383 129.239 420 130L420 129L417 129L417 128L425 126L422 127L423 124L419 124L420 122L412 122L412 121L420 120L419 116L421 113L406 113M310 114L311 115L310 114z"></path>
<path style="fill:#3db08d; stroke:none;" d="M311 116L312 117L311 116z"></path>
<path style="fill:#765988; stroke:none;" d="M311 117L312 118L311 117M305.667 119.333L306.333 119.667L305.667 119.333M74 120L75 121L74 120M429 121L430 122L429 121M432 121L433 122L432 121z"></path>
<path style="fill:#0f0c11; stroke:none;" d="M113 122L114 123L113 122z"></path>
<path style="fill:#765988; stroke:none;" d="M426 122L425 124L426 122z"></path>
<path style="fill:#0f0c11; stroke:none;" d="M99 125L99 126L111 124L99 125z"></path>
<path style="fill:#765988; stroke:none;" d="M427 125L428 126L427 125z"></path>
<path style="fill:#0f0c11; stroke:none;" d="M414 127L415 128L414 127M94 129L95 130L94 129M97.6667 130.333L98.3333 130.667L97.6667 130.333z"></path>
<path style="fill:#765988; stroke:none;" d="M402 131L402 132L407 132L407 133L402 133L402 135L409 135L409 136L402 136L402 137L412 139L412 140L403 139L407 141L407 142L401 142L401 143L411 145L411 146L406 146L406 147L412 148L412 149L401 148L401 149L404 149L404 150L395 150L395 151L403 153L403 154L391 154L391 155L400 157L400 158L396 158L396 160L415 164L415 165L393 162L393 163L403 165L403 166L387 165L387 166L389 167L387 169L394 169L394 170L390 170C393.032 174.6 397.732 175.77 403 176L403 177L389 177L389 178L392 178L392 179L385 178L397 183L397 184L386 183L386 184L396 186L396 187L385 187L385 188L414 197L413 195L414 195L436 208L434 205L437 206L437 205L425 197L425 196L428 196L428 195L425 194L426 191L430 193L428 189L432 191L428 186L434 188L434 187C432.091 185.644 426.075 180.657 431 180L431 179L427 179L425 176L425 175L431 176L431 175L423 171L427 171L426 167L431 168L431 163L424 161L424 160L429 160L426 158L426 157L430 157L430 156L415 149L415 148L428 152L428 151L414 145L414 144L425 144L425 143L418 141L418 140L425 138L421 136L416 134L416 133L425 133C419.041 129.832 408.42 129.103 402 131M119 131L120 132L119 131M91 132L92 133L91 132M210 132L211 133L210 132z"></path>
<path style="fill:#0f0c11; stroke:none;" d="M106.667 133.333L107.333 133.667L106.667 133.333z"></path>
<path style="fill:#765988; stroke:none;" d="M428.667 134.333L429.333 134.667L428.667 134.333M89 135L90 136L89 135M425.667 135.333L426.333 135.667L425.667 135.333M125 136L126 137L125 136z"></path>
<path style="fill:#3db08d; stroke:none;" d="M211 136L212 137L211 136z"></path>
<path style="fill:#0f0c11; stroke:none;" d="M412 136L412 137L416 137L412 136z"></path>
<path style="fill:#90678d; stroke:none;" d="M100 137L101 138L100 137z"></path>
<path style="fill:#765988; stroke:none;" d="M211.333 137.667L211.667 138.333L211.333 137.667M300 137L301 138L300 137z"></path>
<path style="fill:#90678d; stroke:none;" d="M97.6667 138.333L98.3333 138.667L97.6667 138.333z"></path>
<path style="fill:#0f0c11; stroke:none;" d="M108.667 138.333L109.333 138.667L108.667 138.333M99 139L100 140L99 139M97.6667 140.333L98.3333 140.667L97.6667 140.333z"></path>
<path style="fill:#765988; stroke:none;" d="M117 140L118 141L117 140z"></path>
<path style="fill:#0f0c11; stroke:none;" d="M412 140L412 141L415 141L412 140z"></path>
<path style="fill:#765988; stroke:none;" d="M428 140L429 141L428 140z"></path>
<path style="fill:#0f0c11; stroke:none;" d="M90.6667 142.333L91.3333 142.667L90.6667 142.333M407 142L407 143L411 143L407 142z"></path>
<path style="fill:#90678d; stroke:none;" d="M99 143L100 144L99 143z"></path>
<path style="fill:#f6f6f6; stroke:none;" d="M298 143L299 144L298 143z"></path>
<path style="fill:#0f0c11; stroke:none;" d="M412.667 143.333L413.333 143.667L412.667 143.333z"></path>
<path style="fill:#90678d; stroke:none;" d="M97 144L98 145L97 144M94 148L94 149L105 145L94 148z"></path>
<path style="fill:#3db08d; stroke:none;" d="M298 144L299 145L298 144z"></path>
<path style="fill:#765988; stroke:none;" d="M403 145L404 146L403 145z"></path>
<path style="fill:#90678d; stroke:none;" d="M92 146L93 147L92 146z"></path>
<path style="fill:#0f0c11; stroke:none;" d="M111.667 146.333L112.333 146.667L111.667 146.333M412.667 146.333L413.333 146.667L412.667 146.333z"></path>
<path style="fill:#765988; stroke:none;" d="M294 147L295 148L294 147z"></path>
<path style="fill:#90678d; stroke:none;" d="M92 148L93 149L92 148z"></path>
<path style="fill:#0f0c11; stroke:none;" d="M109 148L110 149L109 148M114 149L115 150L114 149M412 149L415 151L415 150L412 149z"></path>
<path style="fill:#90678d; stroke:none;" d="M102 150L103 151L102 150z"></path>
<path style="fill:#765988; stroke:none;" d="M85 151L86 152L85 151z"></path>
<path style="fill:#90678d; stroke:none;" d="M100 151L101 152L100 151M97 152L98 153L97 152z"></path>
<path style="fill:#0f0c11; stroke:none;" d="M113.667 152.333L114.333 152.667L113.667 152.333z"></path>
<path style="fill:#765988; stroke:none;" d="M429 153L430 154L429 153M120.667 154.333L121.333 154.667L120.667 154.333z"></path>
<path style="fill:#0f0c11; stroke:none;" d="M412 154L412 155L424 160L412 154z"></path>
<path style="fill:#765988; stroke:none;" d="M118 155L119 156L118 155z"></path>
<path style="fill:#90678d; stroke:none;" d="M99 156L98 158L99 156z"></path>
<path style="fill:#765988; stroke:none;" d="M125 156L126 157L125 156z"></path>
<path style="fill:#3db08d; stroke:none;" d="M217 156L218 157L217 156z"></path>
<path style="fill:#765988; stroke:none;" d="M293 156L294 157L293 156z"></path>
<path style="fill:#0f0c11; stroke:none;" d="M404.667 156.333L405.333 156.667L404.667 156.333z"></path>
<path style="fill:#90678d; stroke:none;" d="M92 157L93 158L92 157z"></path>
<path style="fill:#765988; stroke:none;" d="M123 157L124 158L123 157M217.333 157.667L217.667 158.333L217.333 157.667M293 158L294 159L293 158z"></path>
<path style="fill:#f6f6f6; stroke:none;" d="M71 160L72 161L71 160z"></path>
<path style="fill:#0f0c11; stroke:none;" d="M90 160L91 161L90 160M112 160L109 162L109 163L113 161L112 160z"></path>
<path style="fill:#765988; stroke:none;" d="M217 160L219 164L220 164L217 160z"></path>
<path style="fill:#3db08d; stroke:none;" d="M250 160L251 161L250 160z"></path>
<path style="fill:#765988; stroke:none;" d="M256 160L257 161L256 160M290 160L291 161L290 160M250 161L251 162L250 161z"></path>
<path style="fill:#90678d; stroke:none;" d="M256 161L257 162L256 161M262 161L263 162L262 161z"></path>
<path style="fill:#0f0c11; stroke:none;" d="M92 162L93 163L92 162z"></path>
<path style="fill:#90678d; stroke:none;" d="M98 162L99 163L98 162z"></path>
<path style="fill:#f6f6f6; stroke:none;" d="M251 162L252 163L251 162z"></path>
<path style="fill:#765988; stroke:none;" d="M258 162L259 163L258 162M262 162L263 163L262 162M292 162L293 163L292 162z"></path>
<path style="fill:#0f0c11; stroke:none;" d="M119 163L120 164L119 163M114 164L111 166L111 167L115 165L114 164M121 164L103 176L103 177C108.767 174.901 119.267 170.346 121 164M89.6667 165.333L90.3333 165.667L89.6667 165.333M124 165L122 168L124 165z"></path>
<path style="fill:#765988; stroke:none;" d="M219 165L223 171L219 165M231 165L232 166L231 165M236 165L237 166L236 165M256 165L256 167L258 167L256 165M262.333 165.667L262.667 166.333L262.333 165.667z"></path>
<path style="fill:#0f0c11; stroke:none;" d="M415 165L415 166L418 166L415 165M426 165L426 166L430 167L430 166L426 165z"></path>
<path style="fill:#90678d; stroke:none;" d="M93 166L94 167L93 166M95 170L101 167L95 170M225 166L229 169L229 168L225 166M231 166L234 168L231 166M237 166L240 169L237 166z"></path>
<path style="fill:#765988; stroke:none;" d="M238 166L239 167L238 166M253.333 166.667L253.667 167.333L253.333 166.667z"></path>
<path style="fill:#0f0c11; stroke:none;" d="M395 166L396 167L395 166z"></path>
<path style="fill:#765988; stroke:none;" d="M432 166L433 167L432 166z"></path>
<path style="fill:#f6f6f6; stroke:none;" d="M220 167L221 168L220 167M231 167L232 168L231 167z"></path>
<path style="fill:#90678d; stroke:none;" d="M245 167L246 170L247 170L245 167M251 167L252 168L251 167z"></path>
<path style="fill:#0f0c11; stroke:none;" d="M109 168L107 169L107 170L109 168z"></path>
<path style="fill:#765988; stroke:none;" d="M128 168L127 170L128 168M233 168L233 169L239 172L233 168M240 168L240 169L240 170L247 174L247 170L240 168M245 168L246 169L245 168z"></path>
<path style="fill:#0f0c11; stroke:none;" d="M92 169L91 171L93 171L92 169z"></path>
<path style="fill:#90678d; stroke:none;" d="M100 169L98 170L98 171L100 169M224 169L225 170L224 169z"></path>
<path style="fill:#765988; stroke:none;" d="M229.667 169.333L230.333 169.667L229.667 169.333z"></path>
<path style="fill:#90678d; stroke:none;" d="M241 169L242 170L241 169M243 169L244 170L243 169z"></path>
<path style="fill:#765988; stroke:none;" d="M247 169L248 170L247 169M249 169L249 172L250 172L249 169M252 169L251 176L252 176L252 169M255 169L256 170L255 169z"></path>
<path style="fill:#0f0c11; stroke:none;" d="M418 169L414 170L414 171C416.267 171.352 418.115 171.656 418 169z"></path>
<path style="fill:#765988; stroke:none;" d="M430 169L431 170L430 169M438 169L438 170L441 170L438 169z"></path>
<path style="fill:#0f0c11; stroke:none;" d="M105 170L106 171L105 170M118 170L111 177L118 170z"></path>
<path style="fill:#765988; stroke:none;" d="M225.667 170.333L226.333 170.667L225.667 170.333M231 170L232 171L231 170M258 170L259 171L258 170M271 170L270 172L271 170z"></path>
<path style="fill:#90678d; stroke:none;" d="M101 171C98.7629 172.062 82.7563 178.224 91 180L90 177L102 172L101 171z"></path>
<path style="fill:#765988; stroke:none;" d="M134 171L135 172L134 171z"></path>
<path style="fill:#90678d; stroke:none;" d="M223 171L224 172L223 171M239 171L240 172L239 171z"></path>
<path style="fill:#0f0c11; stroke:none;" d="M419 171L420 172L419 171z"></path>
<path style="fill:#765988; stroke:none;" d="M428 171L428 172L433 173L433 172L428 171z"></path>
<path style="fill:#0f0c11; stroke:none;" d="M102 172L103 173L102 172z"></path>
<path style="fill:#90678d; stroke:none;" d="M224 172L225 173L224 172z"></path>
<path style="fill:#765988; stroke:none;" d="M225 172L225 174L227 174L225 172M257.333 172.667L257.667 173.333L257.333 172.667z"></path>
<path style="fill:#0f0c11; stroke:none;" d="M408.667 172.333L409.333 172.667L408.667 172.333z"></path>
<path style="fill:#765988; stroke:none;" d="M262 173L263 174L262 173z"></path>
<path style="fill:#0f0c11; stroke:none;" d="M411.667 173.333L412.333 173.667L411.667 173.333M419 173L419 174L425 175L419 173z"></path>
<path style="fill:#765988; stroke:none;" d="M222 174L224 176L222 174M227.667 174.333L228.333 174.667L227.667 174.333M287 174L288 175L287 174z"></path>
<path style="fill:#90678d; stroke:none;" d="M99 175L100 176L99 175z"></path>
<path style="fill:#0f0c11; stroke:none;" d="M117 175L110 181L110 182L118 178L117 175M119 177L122 176L119 177z"></path>
<path style="fill:#90678d; stroke:none;" d="M97 176L98 177L97 176z"></path>
<path style="fill:#765988; stroke:none;" d="M130 176L131 177L130 176z"></path>
<path style="fill:#0f0c11; stroke:none;" d="M424 176L427 178L427 177L424 176z"></path>
<path style="fill:#90678d; stroke:none;" d="M95 177L92 179L92 180L97 178L95 177z"></path>
<path style="fill:#0f0c11; stroke:none;" d="M120 179L123 178L120 179M124 178L124 182L128 180L127 177L124 178z"></path>
<path style="fill:#765988; stroke:none;" d="M434.667 177.333L435.333 177.667L434.667 177.333z"></path>
<path style="fill:#0f0c11; stroke:none;" d="M409 178L409 181L421 184L409 178z"></path>
<path style="fill:#90678d; stroke:none;" d="M424 178L425 179L424 178z"></path>
<path style="fill:#0f0c11; stroke:none;" d="M118 179L117 181L118 179M425 180L426 181L425 180M115 181L116 182L115 181z"></path>
<path style="fill:#90678d; stroke:none;" d="M93 182L89 186L94 183L93 182z"></path>
<path style="fill:#0f0c11; stroke:none;" d="M428 182L429 183L428 182M108 183L109 184L108 183M121 183L122 184L121 183M126 183L127 184L126 183M424 183L425 184L424 183M426 183L428 185L426 183z"></path>
<path style="fill:#765988; stroke:none;" d="M431 183L432 184L431 183z"></path>
<path style="fill:#0f0c11; stroke:none;" d="M96 184L95 186L96 184M106 184L101 185L101 186L102 188L107 185L106 184M402.667 185.333L403.333 185.667L402.667 185.333M425 185L427 187L425 185M407 186L408 187L407 186z"></path>
<path style="fill:#765988; stroke:none;" d="M442 186L443 187L442 186z"></path>
<path style="fill:#0f0c11; stroke:none;" d="M411 187L412 188L411 187M413 188L414 189L413 188z"></path>
<path style="fill:#90678d; stroke:none;" d="M427 188L428 189L427 188M85 190L85 191L96 193L96 190L85 190M428.667 189.333L429.333 189.667L428.667 189.333z"></path>
<path style="fill:#0f0c11; stroke:none;" d="M101.667 190.333L102.333 190.667L101.667 190.333M104.667 190.333L105.333 190.667L104.667 190.333M414 190L414 191L418 191L414 190M424 190L425 191L424 190M118 192L119 193L118 192M417 192L418 193L417 192M97 193L98 194L97 193M105 193L104 195L105 193M121.667 193.333L122.333 193.667L121.667 193.333z"></path>
<path style="fill:#765988; stroke:none;" d="M388 193L388 194L400 197L400 198L382 196L382 197L390 199L388 201L414 207L414 208L385 204L385 205L396 208L396 209L389 209L396 213L396 214L387 215L380 214L380 215L385 215C385.63 219.765 396.649 222.029 401 223L401 224L386 223L386 224L401 232L397 231L397 232L406 240L417 241L429 249L429 248L416 240L416 236L422 233L426 237L421 231L427 234L427 233L424 232L423 227L429 228L426 224L431 227L430 223L429 222L427 223L423 220L423 219L427 219L427 218L422 218L422 214L428 216L428 212L431 213L431 212L427 210L430 209C422.221 196.176 401.339 194.65 388 193z"></path>
<path style="fill:#0f0c11; stroke:none;" d="M410 193L411 194L410 193z"></path>
<path style="fill:#90678d; stroke:none;" d="M94 194L95 195L94 194z"></path>
<path style="fill:#0f0c11; stroke:none;" d="M412 194L413 195L412 194z"></path>
<path style="fill:#90678d; stroke:none;" d="M98.6667 195.333L99.3333 195.667L98.6667 195.333M89 196L89 197L92 197L89 196z"></path>
<path style="fill:#0f0c11; stroke:none;" d="M95.6667 196.333L96.3333 196.667L95.6667 196.333M98 198L98 199L103 197L98 198z"></path>
<path style="fill:#90678d; stroke:none;" d="M95 199L98 197L95 199z"></path>
<path style="fill:#0f0c11; stroke:none;" d="M129 200L132 198L129 200M403 198L404 199L403 198M407 198L412 201L412 200L407 198z"></path>
<path style="fill:#90678d; stroke:none;" d="M424 198L425 199L424 198M91 200L91 201L94 201L94 202L87 201L87 202L95 204L96 200L91 200M426 199L427 200L426 199z"></path>
<path style="fill:#0f0c11; stroke:none;" d="M111 200L112 201L111 200M397 200L398 201L397 200M109 201L108 203L109 201z"></path>
<path style="fill:#765988; stroke:none;" d="M255 201L256 202L255 201z"></path>
<path style="fill:#0f0c11; stroke:none;" d="M395 201L396 202L395 201M399 201L399 202L406 204L406 203L399 201M415 201L416 202L415 201M427 201L427 202L434 205L434 204L427 201M411 202L412 203L411 202z"></path>
<path style="fill:#90678d; stroke:none;" d="M96 206L100 204L96 206z"></path>
<path style="fill:#765988; stroke:none;" d="M251 203L253 241L252 241L251 234L250 234L254 248L253 248L253 246L252 246L252 253L253 253L254 248L255 250L256 250L256 247L257 247L257 250L258 250L264 239L270 225L271 225L265 240L266 240L274 228L275 226L279 217L280 217L279 220L291 204L291 203L286 208L284 206L276 209L271 221L270 221L272 211L271 211L266 221L266 226L265 226L264 218L263 218L261 225L260 225L261 217L260 217L258 231L257 231L259 205L258 205L258 211L257 211L257 206L256 206L256 222L255 222L255 208L254 208L254 212L253 212L251 203M255.333 203.667L255.667 204.333L255.333 203.667M319.667 203.333L320.333 203.667L319.667 203.333z"></path>
<path style="fill:#0f0c11; stroke:none;" d="M413.667 203.333L414.333 203.667L413.667 203.333M113 204L109 207L109 208L113 204z"></path>
<path style="fill:#765988; stroke:none;" d="M227 204L229 209L230 209L227 204M281 204L278 206L278 207L281 204M293 204L292 206L293 204z"></path>
<path style="fill:#90678d; stroke:none;" d="M411 204L411 205L425 212L411 204M422 204L423 205L422 204z"></path>
<path style="fill:#765988; stroke:none;" d="M261 205L260 213L261 213L261 205M264 205L264 210L265 210L264 205z"></path>
<path style="fill:#90678d; stroke:none;" d="M419 205L422 207L422 206L419 205M424 205L425 206L424 205z"></path>
<path style="fill:#765988; stroke:none;" d="M223 206L227 215L228 215L223 206M233 206L236 219L235 219L233 210L232 210L232 217L231 217L231 215L230 215C230.811 219.024 232.504 227.344 237 228L236 232L239 231C234.692 239.707 242.787 254.608 244 264L245 264L239 234L240 234L243 242L244 242L244 239L245 239L247 256L248 256C245.857 240.005 243.769 218.999 233 206M275 206L276 207L275 206M330 206L331 207L330 206z"></path>
<path style="fill:#90678d; stroke:none;" d="M94 208L94 209L98 208L94 208M102 207L103 208L102 207z"></path>
<path style="fill:#765988; stroke:none;" d="M302 207L303 208L302 207M326.667 207.333L327.333 207.667L326.667 207.333z"></path>
<path style="fill:#0f0c11; stroke:none;" d="M425 207L427 209L425 207z"></path>
<path style="fill:#90678d; stroke:none;" d="M92 208L93 209L92 208M93 210L94 213L94 215L92 216L94 216L92 219L102 216L103 212L99 211L99 210L101 208L93 210z"></path>
<path style="fill:#0f0c11; stroke:none;" d="M122 208L114 215L122 208z"></path>
<path style="fill:#765988; stroke:none;" d="M132 208L131 210L132 208M240 208L242 217L241 217L239 212L238 212L249 248L250 248L245 221L244 221L244 223L243 223L244 218L242 219L242 218L240 208M274 208L275 209L274 208M289 208L290 209L289 208M323.667 208.333L324.333 208.667L323.667 208.333M387 208L388 209L387 208z"></path>
<path style="fill:#0f0c11; stroke:none;" d="M414 208L415 209L414 208z"></path>
<path style="fill:#765988; stroke:none;" d="M80 209L81 210L80 209z"></path>
<path style="fill:#0f0c11; stroke:none;" d="M276 216L277 216L279 210L281 212L283 209C278.6 209.921 276.705 211.496 276 216z"></path>
<path style="fill:#765988; stroke:none;" d="M328.667 209.333L329.333 209.667L328.667 209.333z"></path>
<path style="fill:#0f0c11; stroke:none;" d="M402 209L402 210L406 212L402 209M105 214L113 211L105 214z"></path>
<path style="fill:#765988; stroke:none;" d="M325 210L326 211L325 210M291 211L286 218L290 217L288 215L291 211M294 214L298 211L294 214M319 211L320 212L319 211M331.667 211.333L332.333 211.667L331.667 211.333z"></path>
<path style="fill:#0f0c11; stroke:none;" d="M408 211L408 212L411 213L408 211z"></path>
<path style="fill:#765988; stroke:none;" d="M100.667 212.333L101.333 212.667L100.667 212.333M286 212L284 216L286 212M327 212L327 213L330 213L327 212z"></path>
<path style="fill:#90678d; stroke:none;" d="M414 212L414 213L422 217L414 212M421.667 212.333L422.333 212.667L421.667 212.333z"></path>
<path style="fill:#765988; stroke:none;" d="M436 212L437 213L436 212M319 213L314 216L314 217L320 214L319 213M324.667 213.333L325.333 213.667L324.667 213.333M378 213L379 214L378 213z"></path>
<path style="fill:#0f0c11; stroke:none;" d="M420.667 213.333L421.333 213.667L420.667 213.333z"></path>
<path style="fill:#765988; stroke:none;" d="M432 213L433 214L432 213M131 214L129 218L130 218L131 214M292 214L291 216L292 214M301 214L302 215L301 214M306 214L307 215L306 214z"></path>
<path style="fill:#0f0c11; stroke:none;" d="M402 214L402 215L408 217L408 216L402 214z"></path>
<path style="fill:#90678d; stroke:none;" d="M410 214L410 215L410 217L424 225L424 224L412 217L414 215L410 214z"></path>
<path style="fill:#765988; stroke:none;" d="M94.6667 215.333L95.3333 215.667L94.6667 215.333z"></path>
<path style="fill:#90678d; stroke:none;" d="M95 223L103 222L95 228L95 229L101 231L98 236C103.057 233.622 108.09 228.599 109 223L108 223L109 225L108 225L101 227L101 226L109 218L103 222L106 215L95 223z"></path>
<path style="fill:#0f0c11; stroke:none;" d="M109 215L110 216L109 215M116 215L117 216L116 215M108 216L109 217L108 216M280 216L281 217L280 216z"></path>
<path style="fill:#765988; stroke:none;" d="M296 216L292 222L296 216M307 216L304 220L307 216z"></path>
<path style="fill:#90678d; stroke:none;" d="M415.667 216.333L416.333 216.667L415.667 216.333z"></path>
<path style="fill:#0f0c11; stroke:none;" d="M418 216L419 217L418 216M107 217L106 219L107 217z"></path>
<path style="fill:#765988; stroke:none;" d="M215 217L216 218L215 217M223 217L225 219L223 217z"></path>
<path style="fill:#0f0c11; stroke:none;" d="M232.333 217.667L232.667 218.333L232.333 217.667M273 217L274 218L273 217M275 217L276 218L275 217z"></path>
<path style="fill:#765988; stroke:none;" d="M312 217L313 218L312 217M315 219L318 218L315 219z"></path>
<path style="fill:#90678d; stroke:none;" d="M417 217L420 219L417 217M422.667 217.333L423.333 217.667L422.667 217.333z"></path>
<path style="fill:#765988; stroke:none;" d="M94 218L95 219L94 218M107 218L108 219L107 218z"></path>
<path style="fill:#0f0c11; stroke:none;" d="M111 221L114 218L111 221z"></path>
<path style="fill:#765988; stroke:none;" d="M221 218L222 219L221 218M283 218C275.589 225.75 272.784 234.801 270 245L271 245L271 243L272 243L271 248L272 248L277 230L286 219L283 221L283 218M298 218L293 224L298 218M309 218L303 224L309 218M136 219L128 227L135 225L134 222L136 219M313 219L312 221L313 219z"></path>
<path style="fill:#0f0c11; stroke:none;" d="M400 219L401 220L400 219z"></path>
<path style="fill:#765988; stroke:none;" d="M107.667 220.333L108.333 220.667L107.667 220.333z"></path>
<path style="fill:#0f0c11; stroke:none;" d="M109 220L110 221L109 220z"></path>
<path style="fill:#765988; stroke:none;" d="M219 220L221 235L216 231L217 233L216 233L206 225L208 228L202 225L202 226L215 239L198 226L205 234L201 233L201 234L204 237L196 232L216.985 254L227 265L219 253L223 253L231 269L232 269L226 248L233 259L234 259L225 242L231 245L229 242L231 242L225 231L224 231L227 238L226 238L221 227L222 227L223 230L224 230L219 220z"></path>
<path style="fill:#0f0c11; stroke:none;" d="M236 220L237 221L236 220z"></path>
<path style="fill:#765988; stroke:none;" d="M248 220L249 221L248 220M258 220L259 221L258 220z"></path>
<path style="fill:#90678d; stroke:none;" d="M422 220L423 221L422 220z"></path>
<path style="fill:#0f0c11; stroke:none;" d="M107.667 221.333L108.333 221.667L107.667 221.333z"></path>
<path style="fill:#765988; stroke:none;" d="M222 221L223 222L222 221M227 221L228 222L227 221z"></path>
<path style="fill:#0f0c11; stroke:none;" d="M281 221L275 231L276 231L277 228L279 230L283 221L281 221M421 221L422 222L421 221M423 222L424 223L423 222M119 223L118 225L119 223M271.333 223.667L271.667 224.333L271.333 223.667M428 223L429 224L428 223z"></path>
<path style="fill:#765988; stroke:none;" d="M224 224L225 225L224 224z"></path>
<path style="fill:#0f0c11; stroke:none;" d="M268 224L262 236L263 236L268 224z"></path>
<path style="fill:#765988; stroke:none;" d="M300 224L292 234L300 224M106 225L102 228L102 229L106 225z"></path>
<path style="fill:#90678d; stroke:none;" d="M235 225L236 226L235 225z"></path>
<path style="fill:#0f0c11; stroke:none;" d="M238 225L239 226L238 225z"></path>
<path style="fill:#765988; stroke:none;" d="M284 225L285 226L284 225M289 225L290 226L289 225M294 225L287 235L294 225M303 225L302 227L303 225M432 225L434 227L432 225z"></path>
<path style="fill:#90678d; stroke:none;" d="M95 226L96 227L95 226z"></path>
<path style="fill:#765988; stroke:none;" d="M227 226L228 227L227 226z"></path>
<path style="fill:#0f0c11; stroke:none;" d="M260 226L261 227L260 226M264 226L265 227L264 226z"></path>
<path style="fill:#765988; stroke:none;" d="M307 226L308 227L307 226z"></path>
<path style="fill:#0f0c11; stroke:none;" d="M425 226L426 227L425 226z"></path>
<path style="fill:#90678d; stroke:none;" d="M112 227L112 229L114 227L112 227z"></path>
<path style="fill:#765988; stroke:none;" d="M283 227L284 228L283 227z"></path>
<path style="fill:#0f0c11; stroke:none;" d="M421 227L422 228L421 227z"></path>
<path style="fill:#765988; stroke:none;" d="M166 228L167 229L166 228z"></path>
<path style="fill:#0f0c11; stroke:none;" d="M208 228L210 230L208 228z"></path>
<path style="fill:#765988; stroke:none;" d="M228 228L232 239L233 239L228 228z"></path>
<path style="fill:#90678d; stroke:none;" d="M236.333 228.667L236.667 229.333L236.333 228.667z"></path>
<path style="fill:#765988; stroke:none;" d="M432 228L433 229L432 228z"></path>
<path style="fill:#90678d; stroke:none;" d="M98 242L103 241L103 242L101 242L101 243C104.978 242.38 106.917 240.931 108 237L103 240L109 231L112 230C106.196 228.866 100.954 237.809 98 242z"></path>
<path style="fill:#765988; stroke:none;" d="M283 229L281 234L282 234L283 229M311 229L308 231L308 232L312 230L311 229z"></path>
<path style="fill:#90678d; stroke:none;" d="M409 229L415 234L409 229z"></path>
<path style="fill:#765988; stroke:none;" d="M170.667 230.333L171.333 230.667L170.667 230.333z"></path>
<path style="fill:#0f0c11; stroke:none;" d="M211 230L213 232L211 230M220 230L221 231L220 230M239 230L240 231L239 230z"></path>
<path style="fill:#765988; stroke:none;" d="M299 230L294 239L295 239L301 230L299 230z"></path>
<path style="fill:#0f0c11; stroke:none;" d="M414 230L414 232L416 232L414 230z"></path>
<path style="fill:#90678d; stroke:none;" d="M417 230L417 231L421 233L421 232L417 230z"></path>
<path style="fill:#0f0c11; stroke:none;" d="M419.667 230.333L420.333 230.667L419.667 230.333M423 230L424 231L423 230z"></path>
<path style="fill:#765988; stroke:none;" d="M175 231L175 232L189 235L189 236L180 234L189 239L189 240L177 238L177 239L189 242L189 243L171 240L171 241L175 241L175 242L159 244L159 245L174 245L174 246L153 248L153 249L170 248L170 249L160 250L160 251L178 250.158L196 256L196 255L191 253L191 252L202 253L202 252L191 248C195.119 245.466 199.227 248.836 203 251L196 245L205 248C200.343 236.481 186.669 231.929 175 231z"></path>
<path style="fill:#0f0c11; stroke:none;" d="M238.333 231.667L238.667 232.333L238.333 231.667M258.333 231.667L258.667 232.333L258.333 231.667z"></path>
<path style="fill:#765988; stroke:none;" d="M303 231L293 247L294 247L303 231z"></path>
<path style="fill:#90678d; stroke:none;" d="M97.6667 232.333L98.3333 232.667L97.6667 232.333z"></path>
<path style="fill:#765988; stroke:none;" d="M234.333 232.667L234.667 233.333L234.333 232.667z"></path>
<path style="fill:#90678d; stroke:none;" d="M237 232L238 233L237 232z"></path>
<path style="fill:#765988; stroke:none;" d="M306 232L307 233L306 232z"></path>
<path style="fill:#0f0c11; stroke:none;" d="M401 232L402 233L401 232M417 232L417 233L420 234L417 232z"></path>
<path style="fill:#765988; stroke:none;" d="M419 232L420 233L419 232z"></path>
<path style="fill:#0f0c11; stroke:none;" d="M98 233L99 234L98 233M256 233L256 237L257 237L256 233z"></path>
<path style="fill:#90678d; stroke:none;" d="M421 233L422 234L421 233z"></path>
<path style="fill:#765988; stroke:none;" d="M94 234L95 235L94 234M177.667 234.333L178.333 234.667L177.667 234.333z"></path>
<path style="fill:#0f0c11; stroke:none;" d="M213 234L217 238L213 234M413 234L414 235L413 234z"></path>
<path style="fill:#90678d; stroke:none;" d="M108 235L108 237L110 235L108 235z"></path>
<path style="fill:#765988; stroke:none;" d="M235 235L236 236L235 235z"></path>
<path style="fill:#0f0c11; stroke:none;" d="M242 235L243 239L244 239L242 235M259.333 235.667L259.667 236.333L259.333 235.667z"></path>
<path style="fill:#765988; stroke:none;" d="M270 235L270 238L271 238L270 235M283 235L282 238L283 235M336 235L336 236L339 236L336 235z"></path>
<path style="fill:#0f0c11; stroke:none;" d="M99 236L100 237L99 236M111 236L110 239L111 239L111 236M205 236L205 237L208 238L205 236M411 236L411 237L415 239L415 238L411 236M97 237L98 238L97 237z"></path>
<path style="fill:#765988; stroke:none;" d="M277 237L272 256L273 256L277 237M280 237L281 238L280 237M289 237L288 240L289 240L289 237M313 240L313 241L321 238L313 240M445 237L446 238L445 237M163 238L170 240L163 238z"></path>
<path style="fill:#0f0c11; stroke:none;" d="M205 238L216 249L205 238M227 238L228 239L227 238z"></path>
<path style="fill:#765988; stroke:none;" d="M268 238L269 239L268 238z"></path>
<path style="fill:#0f0c11; stroke:none;" d="M99 239L100 240L99 239z"></path>
<path style="fill:#765988; stroke:none;" d="M160 239L161 240L160 239z"></path>
<path style="fill:#0f0c11; stroke:none;" d="M217 239L220 242L217 239M225 239L227 241L225 239z"></path>
<path style="fill:#765988; stroke:none;" d="M236 239L237 245L238 245L236 239M279 239L276 256L277 256L279 239z"></path>
<path style="fill:#0f0c11; stroke:none;" d="M189 240L189 241L194 241L189 240z"></path>
<path style="fill:#765988; stroke:none;" d="M267.333 240.667L267.667 241.333L267.333 240.667M284 240L285 241L284 240z"></path>
<path style="fill:#90678d; stroke:none;" d="M415 240L416 241L415 240z"></path>
<path style="fill:#765988; stroke:none;" d="M166 241L167 242L166 241z"></path>
<path style="fill:#0f0c11; stroke:none;" d="M195 241L197 243L195 241z"></path>
<path style="fill:#765988; stroke:none;" d="M233.333 241.667L233.667 242.333L233.333 241.667z"></path>
<path style="fill:#0f0c11; stroke:none;" d="M258.333 241.667L258.667 242.333L258.333 241.667z"></path>
<path style="fill:#765988; stroke:none;" d="M264.333 241.667L264.667 242.333L264.333 241.667z"></path>
<path style="fill:#0f0c11; stroke:none;" d="M272 241L273 242L272 241z"></path>
<path style="fill:#765988; stroke:none;" d="M323 241L323 242L326 242L323 241z"></path>
<path style="fill:#90678d; stroke:none;" d="M416 241L417 242L416 241z"></path>
<path style="fill:#0f0c11; stroke:none;" d="M175 242L175 243L179 243L175 242M198 242L198 243L203 245L198 242M254.333 242.667L254.667 243.333L254.333 242.667z"></path>
<path style="fill:#765988; stroke:none;" d="M286 242L287 243L286 242M289 245L293 242L289 245M312 242L313 243L312 242M320.667 242.333L321.333 242.667L320.667 242.333M411 242L413 244L411 242z"></path>
<path style="fill:#0f0c11; stroke:none;" d="M181 243L181 244L186 246L186 245L181 243M190 243L190 244L196 245L190 243M218 243L223 248L218 243M221 243L222 244L221 243M245 243L245 246L246 246L245 243z"></path>
<path style="fill:#765988; stroke:none;" d="M310 243L308 244L308 245L310 243z"></path>
<path style="fill:#0f0c11; stroke:none;" d="M104 244L105 245L104 244z"></path>
<path style="fill:#765988; stroke:none;" d="M234 244L235 245L234 244z"></path>
<path style="fill:#0f0c11; stroke:none;" d="M257 244L257 247L258 247L257 244z"></path>
<path style="fill:#765988; stroke:none;" d="M261.333 244.667L261.667 245.333L261.333 244.667M314 244L315 245L314 244M315 246L315 247L321 245L315 246M392 244L393 245L392 244z"></path>
<path style="fill:#0f0c11; stroke:none;" d="M190 245L191 246L190 245M255.333 245.667L255.667 246.333L255.333 245.667z"></path>
<path style="fill:#765988; stroke:none;" d="M419 245L421 247L419 245M99 246L99 248L101 248L99 246M109 246L110 247L109 246z"></path>
<path style="fill:#0f0c11; stroke:none;" d="M188 246L189 247L188 246M216 246L218 248L216 246z"></path>
<path style="fill:#765988; stroke:none;" d="M307 246L301 252L307 246M310.667 246.333L311.333 246.667L310.667 246.333M386 246L387 247L386 246M400 246L401 247L400 246M93 247L94 248L93 247M95.6667 247.333L96.3333 247.667L95.6667 247.333z"></path>
<path style="fill:#90678d; stroke:none;" d="M97.6667 247.333L98.3333 247.667L97.6667 247.333M103 247L103 248L106 248L103 247z"></path>
<path style="fill:#0f0c11; stroke:none;" d="M171 247L173 249L171 247z"></path>
<path style="fill:#765988; stroke:none;" d="M238 247L239 248L238 247M269 247L270 248L269 247M313 247L310 249L310 250L314 248L313 247M388 247L389 248L388 247M409 247L410 248L409 247z"></path>
<path style="fill:#0f0c11; stroke:none;" d="M220 248L221 249L220 248z"></path>
<path style="fill:#765988; stroke:none;" d="M292 248L290 254L291 254L292 248M411 248L411 249L426 258L426 257L419 253L419 252L424 254L424 253L417 249L419 252L411 248z"></path>
<path style="fill:#0f0c11; stroke:none;" d="M182 249L183 250L182 249z"></path>
<path style="fill:#765988; stroke:none;" d="M208 249L211 252L208 249z"></path>
<path style="fill:#0f0c11; stroke:none;" d="M222 249L226 253L222 249z"></path>
<path style="fill:#765988; stroke:none;" d="M249.333 249.667L249.667 250.333L249.333 249.667M259.333 249.667L259.667 250.333L259.333 249.667M148 250L149 251L148 250M401.667 250.333L402.333 250.667L401.667 250.333M409 250L410 251L409 250M101 251L100 253L101 251M104 251L105 252L104 251M175 251L178 253L178 252L175 251z"></path>
<path style="fill:#0f0c11; stroke:none;" d="M190 251L191 252L190 251M217 251L219 253L217 251M220 251L222 253L220 251z"></path>
<path style="fill:#765988; stroke:none;" d="M256.333 251.667L256.667 252.333L256.333 251.667M97.6667 252.333L98.3333 252.667L97.6667 252.333M135 252L136 253L135 252M152 253L152 254L180 257C172.395 249.893 161.462 252.015 152 253M258.333 252.667L258.667 253.333L258.333 252.667M133 253L134 254L133 253M145 253L145 254L149 254L145 253M181 253L181 254L185 256L185 255L181 253M196.667 253.333L197.333 253.667L196.667 253.333M212 254L213 255L212 254z"></path>
<path style="fill:#0f0c11; stroke:none;" d="M226 254L227 255L226 254z"></path>
<path style="fill:#765988; stroke:none;" d="M251.333 254.667L251.667 255.333L251.333 254.667M147 256L147 257L151 256L147 256M304 255L303 257L304 255M65 256L66 257L65 256M190 256L191 257L190 256M197 256L198 257L197 256M137 259L140 258L137 259M183.667 257.333L184.333 257.667L183.667 257.333M192 257L193 258L192 257M252.333 257.667L252.667 258.333L252.333 257.667M276.333 257.667L276.667 258.333L276.333 257.667M282 257L281 261L282 261L282 257M134 258L133 260L134 258M187 258L187 259L190 260L187 258M101 259L102 260L101 259M146 259L139 262L139 263L147 260L146 259M248 259L249 260L248 259M136 262L139 261L136 262M416 260L417 261L416 260M418.667 262.333L419.333 262.667L418.667 262.333M421 262L424 265L421 262M133 263L134 264L133 263M249 263L250 264L249 263M389 263L389 264L392 264L389 263M245 265L246 266L245 265M417 265L418 266L417 265M235.333 266.667L235.667 267.333L235.333 266.667M289 267L290 268L289 267M420.667 267.333L421.333 267.667L420.667 267.333M288 269L287 271L288 269M178 270L178 271L183 271L178 270M329 270L329 271L334 271L329 270M170 271L171 272L170 271z"></path>
<path style="fill:#90678d; stroke:none;" d="M171.667 271.333L172.333 271.667L171.667 271.333z"></path>
<path style="fill:#f6f6f6; stroke:none;" d="M173 271.439C142.483 276.205 114.291 312.947 136.532 341.999C149.34 358.728 176.2 363.408 196 360.572C205.684 359.184 216.88 356.51 223.671 348.907C230.81 340.913 230.909 327.985 229.245 318C224.733 290.927 201.953 266.917 173 271.439z"></path>
<path style="fill:#90678d; stroke:none;" d="M188 271L189 272L188 271z"></path>
<path style="fill:#765988; stroke:none;" d="M189 271L190 272L189 271M322 271L323 272L322 271z"></path>
<path style="fill:#90678d; stroke:none;" d="M323 271L324 272L323 271z"></path>
<path style="fill:#f6f6f6; stroke:none;" d="M324 271.465C296.035 276.498 266.687 321.825 287.533 347.96C299.468 362.923 326.034 362.74 343 359.54C354.344 357.401 365.962 352.738 373.815 343.985C403.422 310.988 360.96 264.813 324 271.465z"></path>
<path style="fill:#90678d; stroke:none;" d="M339.667 271.333L340.333 271.667L339.667 271.333z"></path>
<path style="fill:#765988; stroke:none;" d="M341 271L342 272L341 271M166 272L167 273L166 272z"></path>
<path style="fill:#90678d; stroke:none;" d="M167 272L168 273L167 272M192 272L193 273L192 272z"></path>
<path style="fill:#765988; stroke:none;" d="M193 272L194 273L193 272M318 272L319 273L318 272z"></path>
<path style="fill:#90678d; stroke:none;" d="M319 272L320 273L319 272M344 272L345 273L344 272z"></path>
<path style="fill:#765988; stroke:none;" d="M345 272L346 273L345 272z"></path>
<path style="fill:#90678d; stroke:none;" d="M163 273L164 274L163 273M195 273L196 274L195 273z"></path>
<path style="fill:#765988; stroke:none;" d="M196 273L197 274L196 273M315 273L316 274L315 273z"></path>
<path style="fill:#3db08d; stroke:none;" d="M316 273L317 274L316 273z"></path>
<path style="fill:#90678d; stroke:none;" d="M348 273L349 274L348 273z"></path>
<path style="fill:#765988; stroke:none;" d="M160 274L161 275L160 274z"></path>
<path style="fill:#90678d; stroke:none;" d="M198 274L199 275L198 274M313 274L314 275L313 274z"></path>
<path style="fill:#765988; stroke:none;" d="M351 274L352 275L351 274z"></path>
<path style="fill:#90678d; stroke:none;" d="M158 275L159 276L158 275M200 275L201 276L200 275M311 275L312 276L311 275M353 275L354 276L353 275M156 276L157 277L156 276z"></path>
<path style="fill:#765988; stroke:none;" d="M202 276L203 277L202 276M309 276L310 277L309 276z"></path>
<path style="fill:#90678d; stroke:none;" d="M355 276L356 277L355 276M154 277L155 278L154 277M203 277L204 278L203 277z"></path>
<path style="fill:#3db08d; stroke:none;" d="M308 277L309 278L308 277z"></path>
<path style="fill:#90678d; stroke:none;" d="M357 277L358 278L357 277M152 278L153 279L152 278z"></path>
<path style="fill:#765988; stroke:none;" d="M205 278L206 279L205 278M306 278L307 279L306 278z"></path>
<path style="fill:#90678d; stroke:none;" d="M359 278L360 279L359 278z"></path>
<path style="fill:#765988; stroke:none;" d="M150 279L151 280L150 279z"></path>
<path style="fill:#90678d; stroke:none;" d="M206 279L207 280L206 279M305 279L306 280L305 279z"></path>
<path style="fill:#765988; stroke:none;" d="M361 279L362 280L361 279z"></path>
<path style="fill:#90678d; stroke:none;" d="M149 280L150 281L149 280M362 280L363 281L362 280z"></path>
<path style="fill:#765988; stroke:none;" d="M209 281L210 282L209 281M302 281L303 282L302 281M146 282L147 283L146 282M210 282L211 283L210 282M301 282L302 283L301 282M365 282L366 283L365 282M57 283L58 284L57 283z"></path>
<path style="fill:#90678d; stroke:none;" d="M145 283L146 284L145 283z"></path>
<path style="fill:#765988; stroke:none;" d="M211 283L212 284L211 283M300 283L301 284L300 283z"></path>
<path style="fill:#90678d; stroke:none;" d="M366 283L367 284L366 283M144 284L145 285L144 284z"></path>
<path style="fill:#765988; stroke:none;" d="M212 284L213 285L212 284M299 284L300 285L299 284z"></path>
<path style="fill:#90678d; stroke:none;" d="M367 284L368 285L367 284M143 285L144 286L143 285M190 285L191 286L190 285z"></path>
<path style="fill:#0f0c11; stroke:none;" d="M191 286.256C181.526 289.685 182.191 312.145 183.185 320C183.647 323.652 185.907 329.96 190.816 328.338C199.919 325.331 198.837 302.215 197.535 295C196.989 291.972 195.626 284.582 191 286.256z"></path>
<path style="fill:#765988; stroke:none;" d="M193 285L194 286L193 285M213 285L214 286L213 285M298 285L299 286L298 285M318 285L319 286L318 285z"></path>
<path style="fill:#0f0c11; stroke:none;" d="M319.221 286.06C315.819 286.608 314.949 292.317 314.465 295C313 303.118 313.564 313.137 316.054 321C317.035 324.097 318.937 328.969 322.996 328.534C333.76 327.381 328.521 300.271 326.556 294C325.615 290.994 323.287 285.406 319.221 286.06z"></path>
<path style="fill:#90678d; stroke:none;" d="M321 285L322 286L321 285M368 285L369 286L368 285M142 286L143 287L142 286z"></path>
<path style="fill:#765988; stroke:none;" d="M189 286L190 287L189 286M214 286L215 287L214 286M297 286L298 287L297 286M322 286L323 287L322 286z"></path>
<path style="fill:#90678d; stroke:none;" d="M369 286L370 287L369 286M141 287L142 288L141 287z"></path>
<path style="fill:#765988; stroke:none;" d="M188 287L189 288L188 287z"></path>
<path style="fill:#90678d; stroke:none;" d="M195 287L196 288L195 287z"></path>
<path style="fill:#765988; stroke:none;" d="M215 287L216 288L215 287z"></path>
<path style="fill:#90678d; stroke:none;" d="M316 287L317 288L316 287z"></path>
<path style="fill:#765988; stroke:none;" d="M323 287L324 288L323 287z"></path>
<path style="fill:#90678d; stroke:none;" d="M370 287L371 288L370 287M140 288L141 289L140 288M187 288L188 289L187 288M324 288L325 289L324 288M371 288L372 289L371 288z"></path>
<path style="fill:#765988; stroke:none;" d="M57 289L58 290L57 289M139 289L140 290L139 289z"></path>
<path style="fill:#90678d; stroke:none;" d="M196 289L197 290L196 289M315 289L316 290L315 289z"></path>
<path style="fill:#765988; stroke:none;" d="M372 289L373 290L372 289M138 290L139 291L138 290z"></path>
<path style="fill:#90678d; stroke:none;" d="M186 290L187 291L186 290z"></path>
<path style="fill:#765988; stroke:none;" d="M196 290L197 291L196 290z"></path>
<path style="fill:#90678d; stroke:none;" d="M217 290L218 291L217 290M294 290L295 291L294 290z"></path>
<path style="fill:#765988; stroke:none;" d="M315 290L316 291L315 290z"></path>
<path style="fill:#90678d; stroke:none;" d="M325 290L326 291L325 290z"></path>
<path style="fill:#765988; stroke:none;" d="M373 290L374 291L373 290M218 291L219 292L218 291M293 291L294 292L293 291z"></path>
<path style="fill:#90678d; stroke:none;" d="M137 292L138 293L137 292M374 292L375 293L374 292z"></path>
<path style="fill:#765988; stroke:none;" d="M136 293L137 294L136 293z"></path>
<path style="fill:#90678d; stroke:none;" d="M185 293L186 294L185 293M197 293L198 294L197 293M219 293L220 294L219 293M314 293L315 294L314 293M326 293L327 294L326 293z"></path>
<path style="fill:#765988; stroke:none;" d="M375 293L376 294L375 293z"></path>
<path style="fill:#90678d; stroke:none;" d="M54 294L55 295L54 294z"></path>
<path style="fill:#765988; stroke:none;" d="M188 294L189 295L188 294z"></path>
<path style="fill:#90678d; stroke:none;" d="M189 294L190 295L189 294z"></path>
<path style="fill:#765988; stroke:none;" d="M190 294L191 295L190 294M197 294L198 295L197 294M220 294L221 295L220 294M291 294L292 295L291 294M314 294L315 295L314 294M321 294L322 295L321 294z"></path>
<path style="fill:#90678d; stroke:none;" d="M322 294L323 295L322 294z"></path>
<path style="fill:#765988; stroke:none;" d="M323 294L324 295L323 294z"></path>
<path style="fill:#90678d; stroke:none;" d="M135 295L136 296L135 295M187 295L188 296L187 295z"></path>
<path style="fill:#f6f6f6; stroke:none;" d="M188.603 296.157C186.87 297.314 188.664 300.001 190.397 298.843C192.13 297.686 190.336 294.999 188.603 296.157z"></path>
<path style="fill:#90678d; stroke:none;" d="M191 295L192 296L191 295M320 295L321 296L320 295z"></path>
<path style="fill:#f6f6f6; stroke:none;" d="M321.603 296.157C319.87 297.314 321.664 300.001 323.397 298.843C325.13 297.686 323.336 294.999 321.603 296.157z"></path>
<path style="fill:#90678d; stroke:none;" d="M324 295L325 296L324 295M376 295L377 296L376 295z"></path>
<path style="fill:#765988; stroke:none;" d="M134 296L135 297L134 296z"></path>
<path style="fill:#90678d; stroke:none;" d="M184 296L185 297L184 296z"></path>
<path style="fill:#765988; stroke:none;" d="M186 296L187 297L186 296M192 296L193 297L192 296z"></path>
<path style="fill:#90678d; stroke:none;" d="M221 296L222 297L221 296M290 296L291 297L290 296z"></path>
<path style="fill:#765988; stroke:none;" d="M319 296L320 297L319 296M325 296L326 297L325 296z"></path>
<path style="fill:#90678d; stroke:none;" d="M327 296L328 297L327 296z"></path>
<path style="fill:#765988; stroke:none;" d="M377 296L378 297L377 296M184 297L185 298L184 297z"></path>
<path style="fill:#90678d; stroke:none;" d="M186 297L187 298L186 297M192 297L193 298L192 297M319 297L320 298L319 297M325 297L326 298L325 297z"></path>
<path style="fill:#765988; stroke:none;" d="M327 297L328 298L327 297M133 298L134 299L133 298M186 298L187 299L186 298M192 298L193 299L192 298z"></path>
<path style="fill:#90678d; stroke:none;" d="M222 298L223 299L222 298M289 298L290 299L289 298z"></path>
<path style="fill:#765988; stroke:none;" d="M319 298L320 299L319 298M325 298L326 299L325 298M378 298L379 299L378 298z"></path>
<path style="fill:#90678d; stroke:none;" d="M187 299L188 300L187 299M191 299L192 300L191 299z"></path>
<path style="fill:#765988; stroke:none;" d="M223 299L224 300L223 299M288 299L289 300L288 299z"></path>
<path style="fill:#90678d; stroke:none;" d="M320 299L321 300L320 299M324 299L325 300L324 299z"></path>
<path style="fill:#765988; stroke:none;" d="M132 300L133 301L132 300z"></path>
<path style="fill:#90678d; stroke:none;" d="M183.333 300.667L183.667 301.333L183.333 300.667z"></path>
<path style="fill:#765988; stroke:none;" d="M188 300L189 301L188 300z"></path>
<path style="fill:#90678d; stroke:none;" d="M189 300L190 301L189 300z"></path>
<path style="fill:#765988; stroke:none;" d="M190 300L191 301L190 300z"></path>
<path style="fill:#90678d; stroke:none;" d="M223 300L224 301L223 300z"></path>
<path style="fill:#3db08d; stroke:none;" d="M288 300L289 301L288 300z"></path>
<path style="fill:#765988; stroke:none;" d="M321 300L322 301L321 300z"></path>
<path style="fill:#90678d; stroke:none;" d="M322 300L323 301L322 300z"></path>
<path style="fill:#765988; stroke:none;" d="M323 300L324 301L323 300z"></path>
<path style="fill:#90678d; stroke:none;" d="M328.333 300.667L328.667 301.333L328.333 300.667z"></path>
<path style="fill:#765988; stroke:none;" d="M379 300L380 301L379 300M440 300L443 302L443 301L440 300z"></path>
<path style="fill:#90678d; stroke:none;" d="M132 301L133 302L132 301M198 301L198 307L199 307L198 301z"></path>
<path style="fill:#765988; stroke:none;" d="M224 301L225 302L224 301M287 301L288 302L287 301z"></path>
<path style="fill:#90678d; stroke:none;" d="M313 301L313 307L314 307L313 301M379 301L380 302L379 301z"></path>
<path style="fill:#765988; stroke:none;" d="M183 302L184 303L183 302z"></path>
<path style="fill:#90678d; stroke:none;" d="M224 302L225 303L224 302M287 302L288 303L287 302z"></path>
<path style="fill:#765988; stroke:none;" d="M328 302L329 303L328 302M131 303L132 304L131 303M380 303L381 304L380 303z"></path>
<path style="fill:#90678d; stroke:none;" d="M131 304L132 305L131 304M225 304L226 305L225 304M286 304L287 305L286 304z"></path>
<path style="fill:#3db08d; stroke:none;" d="M380 304L381 305L380 304z"></path>
<path style="fill:#765988; stroke:none;" d="M441 304L441 305L450 306L450 305L441 304M130 306L131 307L130 306M226 306L227 307L226 306M285 306L286 307L285 306M381 306L382 307L381 306z"></path>
<path style="fill:#90678d; stroke:none;" d="M130 307L131 308L130 307M182 307L182 311L183 311L182 307M226 307L227 308L226 307M285 307L286 308L285 307M329 307L329 311L330 311L329 307M381 307L382 308L381 307z"></path>
<path style="fill:#765988; stroke:none;" d="M227 309L228 310L227 309M284 309L285 310L284 309M445 309L445 310L449 310L449 309L445 309z"></path>
<path style="fill:#90678d; stroke:none;" d="M227 310L228 311L227 310M284 310L285 311L284 310z"></path>
<path style="fill:#765988; stroke:none;" d="M129 311L130 312L129 311M182 311L182 316L183 316L182 311M329 311L329 316L330 316L329 311M382 311L383 312L382 311z"></path>
<path style="fill:#90678d; stroke:none;" d="M129 312L129 316L130 316L129 312z"></path>
<path style="fill:#765988; stroke:none;" d="M228 312L229 313L228 312M283 312L284 313L283 312z"></path>
<path style="fill:#90678d; stroke:none;" d="M382 312L382 316L383 316L382 312z"></path>
<path style="fill:#765988; stroke:none;" d="M197 313L198 314L197 313z"></path>
<path style="fill:#90678d; stroke:none;" d="M228 313L229 314L228 313M283 313L284 314L283 313z"></path>
<path style="fill:#765988; stroke:none;" d="M314 313L315 314L314 313z"></path>
<path style="fill:#90678d; stroke:none;" d="M197.333 314.667L197.667 315.333L197.333 314.667M314.333 314.667L314.667 315.333L314.333 314.667M182 316L182 319L183 319L182 316z"></path>
<path style="fill:#765988; stroke:none;" d="M229.333 316.667L229.667 317.333L229.333 316.667M282.333 316.667L282.667 317.333L282.333 316.667z"></path>
<path style="fill:#90678d; stroke:none;" d="M329 316L329 319L330 319L329 316z"></path>
<path style="fill:#765988; stroke:none;" d="M451.667 316.333L452.333 316.667L451.667 316.333z"></path>
<path style="fill:#90678d; stroke:none;" d="M229 318L230 319L229 318M282 318L283 319L282 318z"></path>
<path style="fill:#3db08d; stroke:none;" d="M129 319L130 320L129 319z"></path>
<path style="fill:#90678d; stroke:none;" d="M196.333 319.667L196.667 320.333L196.333 319.667z"></path>
<path style="fill:#3db08d; stroke:none;" d="M229 319L230 320L229 319M282 319L283 320L282 319z"></path>
<path style="fill:#90678d; stroke:none;" d="M315.333 319.667L315.667 320.333L315.333 319.667z"></path>
<path style="fill:#3db08d; stroke:none;" d="M382 319L383 320L382 319z"></path>
<path style="fill:#90678d; stroke:none;" d="M129 320L129 323L130 323L129 320M382 320L382 323L383 323L382 320z"></path>
<path style="fill:#765988; stroke:none;" d="M60.6667 322.333L61.3333 322.667L60.6667 322.333M183 322L184 323L183 322M195 322L196 323L195 322M316 322L317 323L316 322M328 322L329 323L328 322M129.333 323.667L129.667 324.333L129.333 323.667z"></path>
<path style="fill:#90678d; stroke:none;" d="M183 323L184 324L183 323M195 323L196 324L195 323M316 323L317 324L316 323M328 323L329 324L328 323z"></path>
<path style="fill:#765988; stroke:none;" d="M382.333 323.667L382.667 324.333L382.333 323.667M59 324L60 325L59 324M230 324L230 331L231 331L230 324M281 324L281 331L282 331L281 324M184 325L185 326L184 325z"></path>
<path style="fill:#90678d; stroke:none;" d="M194 325L195 326L194 325M317 325L318 326L317 325z"></path>
<path style="fill:#765988; stroke:none;" d="M327 325L328 326L327 325M193 326L194 327L193 326M318 326L319 327L318 326z"></path>
<path style="fill:#90678d; stroke:none;" d="M130.333 327.667L130.667 328.333L130.333 327.667z"></path>
<path style="fill:#765988; stroke:none;" d="M185 327L186 328L185 327M326 327L327 328L326 327z"></path>
<path style="fill:#3db08d; stroke:none;" d="M381 327L382 328L381 327z"></path>
<path style="fill:#765988; stroke:none;" d="M186 328L187 329L186 328M325 328L326 329L325 328z"></path>
<path style="fill:#90678d; stroke:none;" d="M381 328L382 329L381 328z"></path>
<path style="fill:#765988; stroke:none;" d="M130 329L131 330L130 329z"></path>
<path style="fill:#90678d; stroke:none;" d="M187 329L188 330L187 329z"></path>
<path style="fill:#765988; stroke:none;" d="M188.667 329.333L189.333 329.667L188.667 329.333z"></path>
<path style="fill:#90678d; stroke:none;" d="M190 329L191 330L190 329M321 329L322 330L321 329z"></path>
<path style="fill:#765988; stroke:none;" d="M322.667 329.333L323.333 329.667L322.667 329.333z"></path>
<path style="fill:#90678d; stroke:none;" d="M324 329L325 330L324 329z"></path>
<path style="fill:#765988; stroke:none;" d="M381 329L382 330L381 329M246 330L249 339L249 330L248 330L248 334L247 334L246 330z"></path>
<path style="fill:#90678d; stroke:none;" d="M131 331L132 332L131 331z"></path>
<path style="fill:#765988; stroke:none;" d="M253 331L251 332L251 343L252 343L252 337L253 337L255 343L256 343L257 332L256 332L253 331M258 331L261 340L258 331M261 331L261 335L262 335L261 331z"></path>
<path style="fill:#90678d; stroke:none;" d="M380 331L381 332L380 331z"></path>
<path style="fill:#765988; stroke:none;" d="M131 332L132 333L131 332M263 332L263 339L264 339L263 332M380 332L381 333L380 332z"></path>
<path style="fill:#90678d; stroke:none;" d="M132 334L133 335L132 334M379 334L380 335L379 334z"></path>
<path style="fill:#765988; stroke:none;" d="M65 335L66 336L65 335M132 335L133 336L132 335z"></path>
<path style="fill:#90678d; stroke:none;" d="M229.333 335.667L229.667 336.333L229.333 335.667z"></path>
<path style="fill:#765988; stroke:none;" d="M242.333 335.667L242.667 336.333L242.333 335.667z"></path>
<path style="fill:#90678d; stroke:none;" d="M282.333 335.667L282.667 336.333L282.333 335.667z"></path>
<path style="fill:#765988; stroke:none;" d="M379 335L380 336L379 335M133 337L134 338L133 337M229 337L230 338L229 337M282 337L283 338L282 337M378 337L379 338L378 337M449 337L453 341L449 337z"></path>
<path style="fill:#90678d; stroke:none;" d="M450 337L451 338L450 337z"></path>
<path style="fill:#765988; stroke:none;" d="M444 338L445 341L446 341L444 338M134 339L135 340L134 339z"></path>
<path style="fill:#3db08d; stroke:none;" d="M228 339L229 340L228 339M283 339L284 340L283 339z"></path>
<path style="fill:#765988; stroke:none;" d="M377 339L378 340L377 339z"></path>
<path style="fill:#90678d; stroke:none;" d="M135 340L136 341L135 340z"></path>
<path style="fill:#765988; stroke:none;" d="M228 340L229 341L228 340M283 340L284 341L283 340z"></path>
<path style="fill:#90678d; stroke:none;" d="M376 340L377 341L376 340z"></path>
<path style="fill:#765988; stroke:none;" d="M448 340L450 345L451 345L448 340M442 341L449 360L449 355L453 355L452 358L455 357L442 341z"></path>
<path style="fill:#90678d; stroke:none;" d="M452 341L453 342L452 341z"></path>
<path style="fill:#765988; stroke:none;" d="M244 342L245 343L244 342M453.333 342.667L453.667 343.333L453.333 342.667M103 343L104 344L103 343M137 343L138 344L137 343M227 343L228 344L227 343M284 343L285 344L284 343M374 343L375 344L374 343z"></path>
<path style="fill:#90678d; stroke:none;" d="M449 343L450 344L449 343z"></path>
<path style="fill:#765988; stroke:none;" d="M138 344L139 345L138 344M373 344L374 345L373 344M446.667 344.333L447.333 344.667L446.667 344.333z"></path>
<path style="fill:#90678d; stroke:none;" d="M139 345L140 346L139 345z"></path>
<path style="fill:#765988; stroke:none;" d="M226 345L227 346L226 345M285 345L286 346L285 345z"></path>
<path style="fill:#90678d; stroke:none;" d="M372 345L373 346L372 345z"></path>
<path style="fill:#765988; stroke:none;" d="M448 345L449 346L448 345z"></path>
<path style="fill:#90678d; stroke:none;" d="M450 345L453 348L450 345z"></path>
<path style="fill:#765988; stroke:none;" d="M104 346L105 347L104 346M140 346L141 347L140 346z"></path>
<path style="fill:#90678d; stroke:none;" d="M225 346L226 347L225 346M286 346L287 347L286 346z"></path>
<path style="fill:#765988; stroke:none;" d="M371 346L372 347L371 346M440 346L446 361L447 361L440 346M449 346L450 347L449 346M101.667 347.333L102.333 347.667L101.667 347.333M141 347L142 348L141 347M370 347L371 348L370 347M451 347L453 351L451 347M63.6667 348.333L64.3333 348.667L63.6667 348.333z"></path>
<path style="fill:#0f0c11; stroke:none;" d="M445 348L446 349L445 348z"></path>
<path style="fill:#765988; stroke:none;" d="M58.6667 349.333L59.3333 349.667L58.6667 349.333z"></path>
<path style="fill:#90678d; stroke:none;" d="M63 349L64 350L63 349M144 349L145 350L144 349z"></path>
<path style="fill:#765988; stroke:none;" d="M223 349L224 350L223 349M288 349L289 350L288 349z"></path>
<path style="fill:#90678d; stroke:none;" d="M367 349L368 350L367 349z"></path>
<path style="fill:#f6f6f6; stroke:none;" d="M59 350L60 351L59 350z"></path>
<path style="fill:#765988; stroke:none;" d="M61 350L62 351L61 350z"></path>
<path style="fill:#f6f6f6; stroke:none;" d="M63 350L64 351L63 350z"></path>
<path style="fill:#765988; stroke:none;" d="M67 350L68 351L67 350M145 350L146 351L145 350M366 350L367 351L366 350z"></path>
<path style="fill:#90678d; stroke:none;" d="M147 351L148 352L147 351M364 351L365 352L364 351M446 351L447 352L446 351z"></path>
<path style="fill:#0f0c11; stroke:none;" d="M447.333 351.667L447.667 352.333L447.333 351.667z"></path>
<path style="fill:#765988; stroke:none;" d="M148 352L149 353L148 352z"></path>
<path style="fill:#90678d; stroke:none;" d="M219 352L220 353L219 352M292 352L293 353L292 352z"></path>
<path style="fill:#765988; stroke:none;" d="M363 352L364 353L363 352z"></path>
<path style="fill:#0f0c11; stroke:none;" d="M450 352L451 355L452 355L450 352z"></path>
<path style="fill:#765988; stroke:none;" d="M453 352L454 353L453 352M150 353L151 354L150 353M218 353L219 354L218 353M249 353L249 354L252 354L249 353z"></path>
<path style="fill:#90678d; stroke:none;" d="M243 357L243 359C253.331 364.713 258.754 359.445 269 360C265.84 349.966 249.851 353.144 243 357z"></path>
<path style="fill:#765988; stroke:none;" d="M257 353L257 354L261 354L257 353M293 353L294 354L293 353M361 353L362 354L361 353z"></path>
<path style="fill:#0f0c11; stroke:none;" d="M446 353L447 354L446 353M448.333 353.667L448.667 354.333L448.333 353.667z"></path>
<path style="fill:#90678d; stroke:none;" d="M450 353L451 354L450 353z"></path>
<path style="fill:#765988; stroke:none;" d="M152 354L153 355L152 354z"></path>
<path style="fill:#90678d; stroke:none;" d="M216 354L217 355L216 354z"></path>
<path style="fill:#765988; stroke:none;" d="M246.667 354.333L247.333 354.667L246.667 354.333M263 354L263 355L266 355L263 354z"></path>
<path style="fill:#90678d; stroke:none;" d="M295 354L296 355L295 354z"></path>
<path style="fill:#765988; stroke:none;" d="M359 354L360 355L359 354M154 355L155 356L154 355z"></path>
<path style="fill:#90678d; stroke:none;" d="M155 355L156 356L155 355M214 355L215 356L214 355z"></path>
<path style="fill:#765988; stroke:none;" d="M244.667 355.333L245.333 355.667L244.667 355.333z"></path>
<path style="fill:#f6f6f6; stroke:none;" d="M250 356L250 357L256 361L258 359L258 356L250 356z"></path>
<path style="fill:#765988; stroke:none;" d="M266.667 355.333L267.333 355.667L266.667 355.333z"></path>
<path style="fill:#90678d; stroke:none;" d="M297 355L298 356L297 355M356 355L357 356L356 355z"></path>
<path style="fill:#765988; stroke:none;" d="M357 355L358 356L357 355z"></path>
<path style="fill:#0f0c11; stroke:none;" d="M447 355L448 356L447 355M452.333 355.667L452.667 356.333L452.333 355.667z"></path>
<path style="fill:#765988; stroke:none;" d="M56 356L56 358L58 358L58 356L56 356M60 356L61 359L57 363L61 363L62 363L61 360L63 360L60 356z"></path>
<path style="fill:#90678d; stroke:none;" d="M62.6667 356.333L63.3333 356.667L62.6667 356.333M157 356L158 357L157 356z"></path>
<path style="fill:#765988; stroke:none;" d="M212 356L213 357L212 356M243 356L244 357L243 356z"></path>
<path style="fill:#90678d; stroke:none;" d="M254 356L255 357L254 356z"></path>
<path style="fill:#765988; stroke:none;" d="M268 356L269 357L268 356M299 356L300 357L299 356z"></path>
<path style="fill:#90678d; stroke:none;" d="M354 356L355 357L354 356z"></path>
<path style="fill:#765988; stroke:none;" d="M441 356L442 361L443 361L441 356z"></path>
<path style="fill:#90678d; stroke:none;" d="M451 356L452 357L451 356M59 357L60 358L59 357M160 357L161 358L160 357M209 357L210 358L209 357z"></path>
<path style="fill:#765988; stroke:none;" d="M210 357L211 358L210 357M242 357C241.598 368.22 268.394 366.621 270 357L269 357L269 360C258.112 358.924 252.138 365.053 242 357z"></path>
<path style="fill:#f6f6f6; stroke:none;" d="M247 357L248 358L247 357z"></path>
<path style="fill:#765988; stroke:none;" d="M301 357L302 358L301 357z"></path>
<path style="fill:#90678d; stroke:none;" d="M302 357L303 358L302 357M351 357L352 358L351 357M55 358L55 360L57 358L55 358z"></path>
<path style="fill:#f6f6f6; stroke:none;" d="M57 358L58 359L57 358z"></path>
<path style="fill:#765988; stroke:none;" d="M163 358L164 359L163 358z"></path>
<path style="fill:#90678d; stroke:none;" d="M164 358L165 359L164 358M206 358L207 359L206 358z"></path>
<path style="fill:#765988; stroke:none;" d="M207 358L208 359L207 358z"></path>
<path style="fill:#90678d; stroke:none;" d="M254 358L255 359L254 358z"></path>
<path style="fill:#765988; stroke:none;" d="M304 358L305 359L304 358z"></path>
<path style="fill:#90678d; stroke:none;" d="M305 358L306 359L305 358M347 358L348 359L347 358z"></path>
<path style="fill:#765988; stroke:none;" d="M348 358L349 359L348 358M451 358L452 359L451 358z"></path>
<path style="fill:#f6f6f6; stroke:none;" d="M56 359L57 360L56 359z"></path>
<path style="fill:#765988; stroke:none;" d="M167 359L168 360L167 359z"></path>
<path style="fill:#90678d; stroke:none;" d="M168 359L169 360L168 359M202 359L203 360L202 359z"></path>
<path style="fill:#765988; stroke:none;" d="M203 359L204 360L203 359M308 359L309 360L308 359z"></path>
<path style="fill:#90678d; stroke:none;" d="M309 359L310 360L309 359M343 359L344 360L343 359z"></path>
<path style="fill:#765988; stroke:none;" d="M344 359L345 360L344 359z"></path>
<path style="fill:#90678d; stroke:none;" d="M449 359L450 360L449 359M452 359L453 360L452 359M61 360L62 361L61 360z"></path>
<path style="fill:#765988; stroke:none;" d="M64.3333 360.667L64.6667 361.333L64.3333 360.667M67 360L68 361L67 360M172.667 360.333L173.333 360.667L172.667 360.333z"></path>
<path style="fill:#90678d; stroke:none;" d="M174.667 360.333L175.333 360.667L174.667 360.333M196.667 360.333L197.333 360.667L196.667 360.333z"></path>
<path style="fill:#765988; stroke:none;" d="M198 360L199 361L198 360M313 360L314 361L313 360z"></path>
<path style="fill:#90678d; stroke:none;" d="M314.667 360.333L315.333 360.667L314.667 360.333M336.667 360.333L337.333 360.667L336.667 360.333z"></path>
<path style="fill:#765988; stroke:none;" d="M338.667 360.333L339.333 360.667L338.667 360.333z"></path>
<path style="fill:#f6f6f6; stroke:none;" d="M448.667 360.333L449.333 360.667L448.667 360.333M56.3333 361.667L56.6667 362.333L56.3333 361.667z"></path>
<path style="fill:#765988; stroke:none;" d="M181 361L181 362L190 362L181 361M322 361L322 362L331 362L322 361z"></path>
<path style="fill:#f6f6f6; stroke:none;" d="M55 363L56 364L55 363z"></path>
<path style="fill:#3db08d; stroke:none;" d="M489 364L490 365L489 364z"></path>
<path style="fill:#765988; stroke:none;" d="M444 366L447 378L446 378L442 367L441 367L447 385L438 367L437 367L445 392L446 392L446 388L447 388L448 390L450 388L450 378L448 378L448 372L451 373L444 366z"></path>
<path style="fill:#f6f6f6; stroke:none;" d="M445 366L446 367L445 366M448.667 366.333L449.333 366.667L448.667 366.333z"></path>
<path style="fill:#765988; stroke:none;" d="M448 367L449 368L448 367M451 367L451 370L452 370L451 367z"></path>
<path style="fill:#90678d; stroke:none;" d="M449 368L449 371L450 371L449 368M452 370L453 371L452 370M448 374L449 375L448 374M450 374L451 375L450 374z"></path>
<path style="fill:#765988; stroke:none;" d="M451 374L452 375L451 374z"></path>
<path style="fill:#f6f6f6; stroke:none;" d="M56 375L56 378L59 375L56 375z"></path>
<path style="fill:#90678d; stroke:none;" d="M59 375L60 376L59 375z"></path>
<path style="fill:#0f0c11; stroke:none;" d="M444 376L445 377L444 376z"></path>
<path style="fill:#765988; stroke:none;" d="M62 377L63 378L62 377M437 377L443 393C443.861 387.63 441.687 380.097 437 377z"></path>
<path style="fill:#0f0c11; stroke:none;" d="M448 377L449 378L448 377z"></path>
<path style="fill:#90678d; stroke:none;" d="M449 377L450 378L449 377z"></path>
<path style="fill:#0f0c11; stroke:none;" d="M447 378L448 379L447 378z"></path>
<path style="fill:#765988; stroke:none;" d="M435 380L435 383L436 383L435 380M450 380L451 381L450 380z"></path>
<path style="fill:#90678d; stroke:none;" d="M448 381L449 382L448 381z"></path>
<path style="fill:#765988; stroke:none;" d="M60.6667 382.333L61.3333 382.667L60.6667 382.333M449 382L450 383L449 382z"></path>
<path style="fill:#f6f6f6; stroke:none;" d="M58 383L59 384L58 383z"></path>
<path style="fill:#765988; stroke:none;" d="M436.333 383.667L436.667 384.333L436.333 383.667z"></path>
<path style="fill:#90678d; stroke:none;" d="M450 383L451 384L450 383z"></path>
<path style="fill:#765988; stroke:none;" d="M60 384L62 386L62 384L60 384z"></path>
<path style="fill:#90678d; stroke:none;" d="M62 384L63 385L62 384z"></path>
<path style="fill:#765988; stroke:none;" d="M451 384L452 385L451 384M433.333 385.667L433.667 386.333L433.333 385.667M437 385L440 397L443 396L445 398L445 393L441 395L437 385z"></path>
<path style="fill:#0f0c11; stroke:none;" d="M447 385L446 387L447 385z"></path>
<path style="fill:#f6f6f6; stroke:none;" d="M449 386L450 387L449 386z"></path>
<path style="fill:#765988; stroke:none;" d="M60 387L61 388L60 387z"></path>
<path style="fill:#90678d; stroke:none;" d="M61 387L62 388L61 387z"></path>
<path style="fill:#765988; stroke:none;" d="M434 387C432.723 394.866 433.938 405.304 441 410L437 400L439 403L442 403L434 387z"></path>
<path style="fill:#0f0c11; stroke:none;" d="M446 388L446 392L447 392L446 388z"></path>
<path style="fill:#90678d; stroke:none;" d="M448 388L448 391L449 391L448 388M446 390L447 391L446 390M447 391L448 392L447 391z"></path>
<path style="fill:#765988; stroke:none;" d="M429 392L429 395L430 395L429 392z"></path>
<path style="fill:#0f0c11; stroke:none;" d="M443 392L444 393L443 392z"></path>
<path style="fill:#90678d; stroke:none;" d="M444 392L444 393L447 394L444 392z"></path>
<path style="fill:#765988; stroke:none;" d="M139 393L140 394L139 393M195 393L194 395L195 393z"></path>
<path style="fill:#90678d; stroke:none;" d="M443 393L444 394L443 393z"></path>
<path style="fill:#765988; stroke:none;" d="M67 395L68 396L67 395M430.333 396.667L430.667 397.333L430.333 396.667M433.333 396.667L433.667 397.333L433.333 396.667z"></path>
<path style="fill:#0f0c11; stroke:none;" d="M441.667 396.333L442.333 396.667L441.667 396.333z"></path>
<path style="fill:#90678d; stroke:none;" d="M444 396L445 397L444 396M441 397L442 398L441 397M442 398L443 401L442 398z"></path>
<path style="fill:#765988; stroke:none;" d="M428.333 399.667L428.667 400.333L428.333 399.667M431 399L432 403L433 403L431 399z"></path>
<path style="fill:#0f0c11; stroke:none;" d="M436 399L437 400L436 399z"></path>
<path style="fill:#90678d; stroke:none;" d="M439 401L440 402L439 401z"></path>
<path style="fill:#765988; stroke:none;" d="M442 401L443 402L442 401M291 402L292 403L291 402M429 402C429.873 407.911 431.847 415.534 437 419L429 402z"></path>
<path style="fill:#90678d; stroke:none;" d="M440 402L443 406L440 402z"></path>
<path style="fill:#765988; stroke:none;" d="M433.333 404.667L433.667 405.333L433.333 404.667M442 406L443 407L442 406M75 408L74 411L75 411L75 408M427 408L428 409L427 408M434 408L436 410L434 408z"></path>
<path style="fill:#90678d; stroke:none;" d="M440 408L441 409L440 408M441 409L442 410L441 409z"></path>
<path style="fill:#765988; stroke:none;" d="M77 410L75 414L77 410M428 410L433 419L428 410M425 411L426 421L423 418L422 418L423 425L428 423L427 420L428 420L431 424L432 423L425 411M80 413L81 414L80 413M414 413L415 414L414 413M417 413L417 417L418 417L417 413z"></path>
<path style="fill:#0f0c11; stroke:none;" d="M425 414L426 415L425 414z"></path>
<path style="fill:#90678d; stroke:none;" d="M435 416L436 417L435 416z"></path>
<path style="fill:#765988; stroke:none;" d="M82 418L81 421L82 421L82 418z"></path>
<path style="fill:#90678d; stroke:none;" d="M435 418L436 419L435 418M432 419L433 420L432 419M436 419L437 420L436 419M433 420L433 422L435 422L433 420z"></path>
<path style="fill:#f6f6f6; stroke:none;" d="M80 421L81 422L80 421z"></path>
<path style="fill:#0f0c11; stroke:none;" d="M425 422L426 423L425 422z"></path>
<path style="fill:#765988; stroke:none;" d="M434 422L435 423L434 422z"></path>
<path style="fill:#90678d; stroke:none;" d="M423 423L424 424L423 423M425 424L423 425L423 426L425 424M431 424L432 425L431 424z"></path>
<path style="fill:#0f0c11; stroke:none;" d="M424 425L425 426L424 425z"></path>
<path style="fill:#765988; stroke:none;" d="M426 425L427 426L426 425M431 425L432 426L431 425M412.333 426.667L412.667 427.333L412.333 426.667M425 426L426 427L425 426M91.3333 427.667L91.6667 428.333L91.3333 427.667M409 427L410 428L409 427M424 427L425 428L424 427z"></path>
<path style="fill:#90678d; stroke:none;" d="M423 428L424 429L423 428z"></path>
<path style="fill:#765988; stroke:none;" d="M416 429L417 430L416 429M423.333 429.667L423.667 430.333L423.333 429.667M90 430L91 431L90 430z"></path>
<path style="fill:#90678d; stroke:none;" d="M424 430L425 431L424 430z"></path>
<path style="fill:#765988; stroke:none;" d="M93 431L92 434L93 431M402 432L399 447L400 447L400 443L401 443L403 445L402 441L405 444L409 444L409 443L402 432M96.3333 433.667L96.6667 434.333L96.3333 433.667M83 434L84 435L83 434z"></path>
<path style="fill:#90678d; stroke:none;" d="M92 434L93 435L92 434z"></path>
<path style="fill:#765988; stroke:none;" d="M411 434L410 444L411 444C412.914 440.109 414.486 437.243 411 434z"></path>
<path style="fill:#f6f6f6; stroke:none;" d="M412 434L413 435L412 434z"></path>
<path style="fill:#90678d; stroke:none;" d="M84 435L85 436L84 435z"></path>
<path style="fill:#765988; stroke:none;" d="M90 435L91 436L90 435M92 435L93 436L92 435z"></path>
<path style="fill:#3db08d; stroke:none;" d="M413 435L414 436L413 435z"></path>
<path style="fill:#f6f6f6; stroke:none;" d="M416 435L417 436L416 435z"></path>
<path style="fill:#765988; stroke:none;" d="M96 436L95 441L96 441L96 436z"></path>
<path style="fill:#90678d; stroke:none;" d="M419 436L420 437L419 436z"></path>
<path style="fill:#765988; stroke:none;" d="M85 437L86 438L85 437M408.333 437.667L408.667 438.333L408.333 437.667M420 437L421 438L420 437M93 438L92 440L93 438M101 438L100 441L101 438z"></path>
<path style="fill:#90678d; stroke:none;" d="M420.667 438.333L421.333 438.667L420.667 438.333z"></path>
<path style="fill:#765988; stroke:none;" d="M88 439L89 440L88 439z"></path>
<path style="fill:#90678d; stroke:none;" d="M413 439L414 440L413 439z"></path>
<path style="fill:#765988; stroke:none;" d="M421 439L422 440L421 439z"></path>
<path style="fill:#90678d; stroke:none;" d="M95 441L96 442L95 441z"></path>
<path style="fill:#765988; stroke:none;" d="M117 441L116 444L117 441M395 441L396 442L395 441z"></path>
<path style="fill:#0f0c11; stroke:none;" d="M402 441L403 442L402 441z"></path>
<path style="fill:#90678d; stroke:none;" d="M403 441L404 442L403 441z"></path>
<path style="fill:#0f0c11; stroke:none;" d="M405 441L406 442L405 441z"></path>
<path style="fill:#765988; stroke:none;" d="M419 441L420 442L419 441z"></path>
<path style="fill:#90678d; stroke:none;" d="M405 442L406 443L405 442M407 442L408 443L407 442z"></path>
<path style="fill:#765988; stroke:none;" d="M416 442L417 443L416 442z"></path>
<path style="fill:#f6f6f6; stroke:none;" d="M415 443L416 444L415 443z"></path>
<path style="fill:#90678d; stroke:none;" d="M416 443L417 444L416 443M408 444L409 445L408 444z"></path>
<path style="fill:#f6f6f6; stroke:none;" d="M414 444L415 445L414 444z"></path>
<path style="fill:#765988; stroke:none;" d="M111 445L112 446L111 445z"></path>
<path style="fill:#90678d; stroke:none;" d="M402 445L404 447L404 445L402 445z"></path>
<path style="fill:#765988; stroke:none;" d="M116 446L117 447L116 446M127 446L125 450L126 453L127 446M402 446L403 447L402 446z"></path>
<path style="fill:#3db08d; stroke:none;" d="M462 446L463 447L462 446z"></path>
<path style="fill:#765988; stroke:none;" d="M114 447L113 449L114 447z"></path>
<path style="fill:#90678d; stroke:none;" d="M115 447L114 449L116 449L115 447z"></path>
<path style="fill:#765988; stroke:none;" d="M123 447L124 448L123 447M397 447L398 448L397 447z"></path>
<path style="fill:#90678d; stroke:none;" d="M399 447L399 450L400 450L399 447z"></path>
<path style="fill:#765988; stroke:none;" d="M403 447L404 448L403 447M117 448L118 449L117 448M386.333 448.667L386.667 449.333L386.333 448.667M400.333 448.667L400.667 449.333L400.333 448.667M115 449L117 451L115 449M120 449L120 451L122 449L120 449M130 449L131 450L130 449M136 449L135 452L136 449M391 449L391 452L392 452L391 449M394 449L394 452L395 452L394 449M472 449L473 450L472 449z"></path>
<path style="fill:#90678d; stroke:none;" d="M115 450L116 451L115 450z"></path>
<path style="fill:#765988; stroke:none;" d="M123 450L124 451L123 450M129 451L130 452L129 451M133 453L132 455L133 453M355 462L356 463L355 462z"></path>
</svg><style>@media (prefers-color-scheme: light) { :root { filter: none; } }
</style></svg>